<svg xmlns="http://www.w3.org/2000/svg" xmlns:xlink="http://www.w3.org/1999/xlink" width="500" zoomAndPan="magnify" viewBox="0 0 375 374.999991" height="500" preserveAspectRatio="xMidYMid meet" version="1.0"><defs><g/><clipPath id="ca9b520da9"><path d="M 112.53125 84.339844 L 243.03125 84.339844 L 243.03125 234.339844 L 112.53125 234.339844 Z M 112.53125 84.339844 " clip-rule="nonzero"/></clipPath><clipPath id="4f00fc2334"><path d="M 196 97 L 235 97 L 235 147 L 196 147 Z M 196 97 " clip-rule="nonzero"/></clipPath><clipPath id="ecc8c812b0"><path d="M 241.511719 152.878906 L 181.910156 102.558594 L 202.714844 77.917969 L 262.316406 128.238281 Z M 241.511719 152.878906 " clip-rule="nonzero"/></clipPath><clipPath id="cb81520ce5"><path d="M 241.511719 152.878906 L 181.910156 102.558594 L 202.714844 77.917969 L 262.316406 128.238281 Z M 241.511719 152.878906 " clip-rule="nonzero"/></clipPath><clipPath id="e95f525cf8"><path d="M 186 89 L 202 89 L 202 106 L 186 106 Z M 186 89 " clip-rule="nonzero"/></clipPath><clipPath id="c8dba5c1de"><path d="M 241.511719 152.878906 L 181.910156 102.558594 L 202.714844 77.917969 L 262.316406 128.238281 Z M 241.511719 152.878906 " clip-rule="nonzero"/></clipPath><clipPath id="7b78cf67f7"><path d="M 241.511719 152.878906 L 181.910156 102.558594 L 202.714844 77.917969 L 262.316406 128.238281 Z M 241.511719 152.878906 " clip-rule="nonzero"/></clipPath><clipPath id="2ddf4838e6"><path d="M 215 94 L 256 94 L 256 136 L 215 136 Z M 215 94 " clip-rule="nonzero"/></clipPath><clipPath id="4f506ab2db"><path d="M 241.511719 152.878906 L 181.910156 102.558594 L 202.714844 77.917969 L 262.316406 128.238281 Z M 241.511719 152.878906 " clip-rule="nonzero"/></clipPath><clipPath id="901a051a02"><path d="M 241.511719 152.878906 L 181.910156 102.558594 L 202.714844 77.917969 L 262.316406 128.238281 Z M 241.511719 152.878906 " clip-rule="nonzero"/></clipPath><clipPath id="34b7831e0b"><path d="M 205 87 L 221 87 L 221 102 L 205 102 Z M 205 87 " clip-rule="nonzero"/></clipPath><clipPath id="87e89ab891"><path d="M 241.511719 152.878906 L 181.910156 102.558594 L 202.714844 77.917969 L 262.316406 128.238281 Z M 241.511719 152.878906 " clip-rule="nonzero"/></clipPath><clipPath id="f5ff14e4fa"><path d="M 241.511719 152.878906 L 181.910156 102.558594 L 202.714844 77.917969 L 262.316406 128.238281 Z M 241.511719 152.878906 " clip-rule="nonzero"/></clipPath><clipPath id="03f11cd88d"><path d="M 201 88 L 205 88 L 205 92 L 201 92 Z M 201 88 " clip-rule="nonzero"/></clipPath><clipPath id="ead7fbd892"><path d="M 241.511719 152.878906 L 181.910156 102.558594 L 202.714844 77.917969 L 262.316406 128.238281 Z M 241.511719 152.878906 " clip-rule="nonzero"/></clipPath><clipPath id="b3082e57dd"><path d="M 241.511719 152.878906 L 181.910156 102.558594 L 202.714844 77.917969 L 262.316406 128.238281 Z M 241.511719 152.878906 " clip-rule="nonzero"/></clipPath><clipPath id="5569876eae"><path d="M 220 102 L 224 102 L 224 106 L 220 106 Z M 220 102 " clip-rule="nonzero"/></clipPath><clipPath id="2b6ea57eb8"><path d="M 241.511719 152.878906 L 181.910156 102.558594 L 202.714844 77.917969 L 262.316406 128.238281 Z M 241.511719 152.878906 " clip-rule="nonzero"/></clipPath><clipPath id="fbeb042829"><path d="M 241.511719 152.878906 L 181.910156 102.558594 L 202.714844 77.917969 L 262.316406 128.238281 Z M 241.511719 152.878906 " clip-rule="nonzero"/></clipPath><clipPath id="9bbaa83c7c"><path d="M 193 107 L 197 107 L 197 111 L 193 111 Z M 193 107 " clip-rule="nonzero"/></clipPath><clipPath id="1264cc42b8"><path d="M 241.511719 152.878906 L 181.910156 102.558594 L 202.714844 77.917969 L 262.316406 128.238281 Z M 241.511719 152.878906 " clip-rule="nonzero"/></clipPath><clipPath id="1f8075c0e7"><path d="M 241.511719 152.878906 L 181.910156 102.558594 L 202.714844 77.917969 L 262.316406 128.238281 Z M 241.511719 152.878906 " clip-rule="nonzero"/></clipPath><clipPath id="2d392659f4"><path d="M 201 80 L 204 80 L 204 84 L 201 84 Z M 201 80 " clip-rule="nonzero"/></clipPath><clipPath id="d70bbff662"><path d="M 241.511719 152.878906 L 181.910156 102.558594 L 202.714844 77.917969 L 262.316406 128.238281 Z M 241.511719 152.878906 " clip-rule="nonzero"/></clipPath><clipPath id="2a6736671d"><path d="M 241.511719 152.878906 L 181.910156 102.558594 L 202.714844 77.917969 L 262.316406 128.238281 Z M 241.511719 152.878906 " clip-rule="nonzero"/></clipPath><clipPath id="76bbeb530f"><path d="M 200 104 L 203 104 L 203 107 L 200 107 Z M 200 104 " clip-rule="nonzero"/></clipPath><clipPath id="61a6529be4"><path d="M 241.511719 152.878906 L 181.910156 102.558594 L 202.714844 77.917969 L 262.316406 128.238281 Z M 241.511719 152.878906 " clip-rule="nonzero"/></clipPath><clipPath id="a5e0744f19"><path d="M 241.511719 152.878906 L 181.910156 102.558594 L 202.714844 77.917969 L 262.316406 128.238281 Z M 241.511719 152.878906 " clip-rule="nonzero"/></clipPath><clipPath id="47a6dd325a"><path d="M 243.03125 309 L 273 309 L 273 349 L 243.03125 349 Z M 243.03125 309 " clip-rule="nonzero"/></clipPath><clipPath id="e1c0391b1d"><path d="M 243.03125 291 L 270 291 L 270 314 L 243.03125 314 Z M 243.03125 291 " clip-rule="nonzero"/></clipPath><clipPath id="deef40a144"><path d="M 262 300 L 297.78125 300 L 297.78125 338 L 262 338 Z M 262 300 " clip-rule="nonzero"/></clipPath></defs><rect x="-37.5" width="450" fill="#ffffff" y="-37.499999" height="449.999989" fill-opacity="1"/><rect x="-37.5" width="450" fill="#000000" y="-37.499999" height="449.999989" fill-opacity="1"/><g clip-path="url(#ca9b520da9)"><path fill="#ffffff" d="M 170.773438 215.171875 C 170.710938 219.527344 172.046875 223.398438 174.769531 225.851562 C 178.863281 229.539062 185.910156 229.542969 190.457031 227.675781 C 194.191406 226.144531 196.363281 223.390625 198.671875 220.472656 C 201.40625 217.007812 204.511719 213.078125 210.351562 211.796875 C 213.425781 211.117188 216.691406 211.292969 220.046875 212.3125 C 221.476562 212.742188 222.28125 214.25 221.847656 215.679688 C 221.417969 217.109375 219.910156 217.910156 218.480469 217.480469 C 216.015625 216.734375 213.667969 216.597656 211.511719 217.070312 C 207.554688 217.941406 205.503906 220.535156 202.910156 223.820312 C 200.398438 227 197.550781 230.601562 192.507812 232.671875 C 190.011719 233.699219 186.960938 234.328125 183.8125 234.328125 C 179.359375 234.328125 174.710938 233.066406 171.15625 229.867188 C 167.121094 226.234375 165.195312 220.550781 165.441406 214.355469 C 135.28125 208.4375 112.523438 181.863281 112.523438 149.976562 C 112.523438 113.730469 141.898438 84.347656 178.144531 84.347656 C 183.296875 84.347656 188.320312 84.941406 193.128906 86.066406 C 191.628906 85.957031 190.09375 85.890625 188.558594 85.890625 C 157.066406 85.890625 131.539062 111.421875 131.539062 142.914062 C 131.539062 165.253906 144.394531 184.601562 163.105469 193.9375 C 161.527344 189.410156 161.3125 185.519531 161.289062 184.839844 C 160.835938 172.816406 168.34375 161.191406 180.445312 154.863281 C 180.695312 154.546875 181.144531 153.867188 181.253906 152.894531 C 181.4375 151.359375 180.648438 150.238281 180.445312 149.976562 C 180.445312 149.976562 163.753906 136.808594 173.960938 115.742188 C 175.722656 116.347656 178.523438 117.589844 181.144531 120.140625 C 182.5625 121.511719 183.566406 122.917969 184.257812 124.074219 C 185.308594 123.554688 186.644531 123.015625 188.246094 122.65625 C 191.605469 121.902344 194.46875 122.289062 196.195312 122.691406 C 196.195312 122.691406 197.113281 114.816406 204.753906 113.195312 C 219.574219 139.8125 198.507812 152.085938 198.507812 152.085938 L 197.816406 156.484375 L 198.972656 190.980469 C 198.972656 190.980469 204.871094 192.230469 205.035156 197.515625 C 223.117188 192.070312 237.410156 177.886719 243.019531 159.863281 C 238.253906 191.410156 211.03125 215.597656 178.144531 215.597656 C 175.652344 215.59375 173.195312 215.445312 170.773438 215.171875 Z M 170.773438 215.171875 " fill-opacity="1" fill-rule="nonzero"/></g><g clip-path="url(#4f00fc2334)"><g clip-path="url(#ecc8c812b0)"><g clip-path="url(#cb81520ce5)"><path fill="#ffffff" d="M 199.058594 97.789062 C 199.015625 97.761719 198.972656 97.738281 198.929688 97.714844 C 198.894531 97.691406 198.855469 97.671875 198.816406 97.648438 C 198.058594 97.730469 197.390625 97.835938 196.8125 97.984375 C 196.914062 98.039062 197.050781 98.109375 197.214844 98.195312 C 197.269531 98.222656 197.324219 98.25 197.382812 98.28125 C 197.410156 98.296875 197.441406 98.3125 197.472656 98.328125 C 197.5 98.34375 197.53125 98.359375 197.5625 98.378906 C 197.6875 98.445312 197.824219 98.519531 197.972656 98.597656 C 198.046875 98.640625 198.125 98.679688 198.203125 98.722656 C 198.246094 98.746094 198.285156 98.765625 198.324219 98.789062 C 198.367188 98.8125 198.410156 98.835938 198.449219 98.859375 C 198.621094 98.953125 198.800781 99.054688 198.992188 99.160156 C 199.75 99.589844 200.664062 100.121094 201.695312 100.765625 C 202.726562 101.410156 203.871094 102.160156 205.09375 103.023438 C 206.3125 103.886719 207.609375 104.863281 208.941406 105.945312 C 208.984375 105.976562 209.023438 106.011719 209.066406 106.046875 C 209.109375 106.082031 209.148438 106.113281 209.191406 106.148438 C 209.273438 106.21875 209.359375 106.285156 209.441406 106.355469 C 209.527344 106.425781 209.609375 106.496094 209.695312 106.566406 C 209.734375 106.597656 209.777344 106.632812 209.820312 106.667969 C 209.863281 106.703125 209.902344 106.738281 209.945312 106.777344 C 210.113281 106.917969 210.28125 107.0625 210.453125 107.207031 C 210.496094 107.242188 210.535156 107.277344 210.578125 107.316406 C 210.621094 107.351562 210.664062 107.386719 210.707031 107.425781 C 210.789062 107.5 210.875 107.574219 210.960938 107.648438 C 211.042969 107.71875 211.128906 107.792969 211.214844 107.871094 C 211.257812 107.90625 211.300781 107.945312 211.34375 107.980469 C 211.382812 108.019531 211.425781 108.058594 211.46875 108.09375 C 211.636719 108.246094 211.808594 108.402344 211.980469 108.554688 C 212.066406 108.628906 212.152344 108.707031 212.234375 108.789062 C 212.320312 108.867188 212.40625 108.945312 212.488281 109.023438 C 212.660156 109.179688 212.832031 109.335938 213 109.5 C 213.171875 109.660156 213.34375 109.824219 213.511719 109.984375 C 213.683594 110.148438 213.851562 110.316406 214.023438 110.480469 C 214.109375 110.5625 214.195312 110.648438 214.277344 110.730469 C 214.363281 110.8125 214.445312 110.898438 214.53125 110.984375 C 214.617188 111.070312 214.703125 111.152344 214.785156 111.238281 C 214.871094 111.324219 214.957031 111.410156 215.039062 111.496094 C 215.207031 111.667969 215.378906 111.839844 215.546875 112.015625 L 215.671875 112.144531 L 215.796875 112.277344 C 215.882812 112.367188 215.964844 112.453125 216.050781 112.542969 C 216.132812 112.632812 216.21875 112.71875 216.300781 112.808594 C 216.386719 112.898438 216.46875 112.988281 216.550781 113.078125 C 216.71875 113.257812 216.882812 113.4375 217.050781 113.621094 C 217.710938 114.347656 218.363281 115.097656 219.003906 115.859375 C 219.644531 116.621094 220.273438 117.402344 220.886719 118.191406 C 221.496094 118.984375 222.09375 119.789062 222.671875 120.597656 C 223.25 121.414062 223.808594 122.234375 224.347656 123.058594 C 224.484375 123.265625 224.617188 123.472656 224.75 123.675781 C 224.816406 123.78125 224.882812 123.882812 224.945312 123.988281 C 225.011719 124.089844 225.078125 124.195312 225.140625 124.296875 C 225.207031 124.402344 225.269531 124.503906 225.335938 124.609375 L 225.433594 124.761719 L 225.527344 124.917969 C 225.652344 125.125 225.777344 125.335938 225.902344 125.539062 C 225.96875 125.644531 226.027344 125.746094 226.089844 125.851562 C 226.148438 125.957031 226.210938 126.058594 226.269531 126.164062 C 226.332031 126.265625 226.394531 126.371094 226.453125 126.472656 C 226.511719 126.578125 226.574219 126.679688 226.632812 126.785156 C 226.75 126.992188 226.867188 127.199219 226.984375 127.402344 C 227.097656 127.609375 227.210938 127.816406 227.328125 128.023438 C 227.441406 128.226562 227.550781 128.433594 227.660156 128.640625 C 227.714844 128.742188 227.769531 128.84375 227.824219 128.945312 C 227.878906 129.046875 227.933594 129.152344 227.988281 129.253906 C 228.09375 129.457031 228.199219 129.660156 228.304688 129.863281 C 228.332031 129.914062 228.355469 129.964844 228.382812 130.015625 C 228.410156 130.066406 228.433594 130.117188 228.460938 130.167969 C 228.511719 130.269531 228.5625 130.371094 228.613281 130.472656 C 228.660156 130.574219 228.710938 130.675781 228.761719 130.777344 C 228.789062 130.828125 228.8125 130.875 228.839844 130.925781 C 228.863281 130.976562 228.886719 131.027344 228.910156 131.078125 C 229.007812 131.277344 229.105469 131.480469 229.203125 131.679688 C 229.226562 131.726562 229.25 131.777344 229.273438 131.828125 C 229.296875 131.878906 229.320312 131.925781 229.34375 131.976562 C 229.390625 132.078125 229.4375 132.175781 229.484375 132.273438 C 229.527344 132.375 229.574219 132.472656 229.621094 132.570312 C 229.644531 132.621094 229.667969 132.667969 229.691406 132.71875 C 229.710938 132.765625 229.734375 132.816406 229.757812 132.863281 C 230.46875 134.433594 231.09375 135.941406 231.625 137.347656 C 232.15625 138.757812 232.601562 140.0625 232.96875 141.230469 C 233.335938 142.398438 233.621094 143.425781 233.847656 144.273438 C 233.902344 144.488281 233.957031 144.6875 234.003906 144.878906 C 234.03125 144.972656 234.054688 145.066406 234.074219 145.152344 C 234.097656 145.242188 234.117188 145.328125 234.136719 145.410156 C 234.179688 145.578125 234.214844 145.730469 234.25 145.871094 C 234.285156 146.011719 234.3125 146.140625 234.339844 146.253906 C 234.445312 146.714844 234.503906 146.957031 234.503906 146.957031 C 234.503906 146.957031 234.453125 146.710938 234.355469 146.25 C 234.332031 146.136719 234.304688 146.007812 234.273438 145.867188 C 234.242188 145.726562 234.207031 145.570312 234.167969 145.40625 C 234.148438 145.320312 234.128906 145.234375 234.109375 145.144531 C 234.089844 145.054688 234.070312 144.964844 234.046875 144.867188 C 234 144.675781 233.953125 144.476562 233.902344 144.261719 C 233.691406 143.40625 233.425781 142.371094 233.082031 141.195312 C 232.734375 140.019531 232.316406 138.703125 231.8125 137.277344 C 231.308594 135.859375 230.710938 134.332031 230.027344 132.746094 C 230.003906 132.695312 229.984375 132.644531 229.960938 132.59375 C 229.941406 132.546875 229.917969 132.496094 229.894531 132.445312 C 229.851562 132.347656 229.808594 132.246094 229.761719 132.144531 C 229.71875 132.046875 229.675781 131.945312 229.628906 131.84375 C 229.609375 131.792969 229.585938 131.746094 229.5625 131.695312 C 229.539062 131.644531 229.515625 131.59375 229.492188 131.542969 C 229.402344 131.339844 229.308594 131.136719 229.214844 130.933594 C 229.191406 130.882812 229.167969 130.832031 229.144531 130.78125 C 229.117188 130.730469 229.09375 130.679688 229.070312 130.628906 C 229.023438 130.527344 228.972656 130.421875 228.925781 130.320312 C 228.875 130.21875 228.828125 130.117188 228.777344 130.011719 C 228.753906 129.960938 228.726562 129.910156 228.703125 129.855469 C 228.679688 129.804688 228.652344 129.753906 228.628906 129.703125 C 228.527344 129.496094 228.421875 129.289062 228.320312 129.082031 C 228.269531 128.976562 228.21875 128.875 228.164062 128.769531 C 228.109375 128.667969 228.058594 128.5625 228.003906 128.457031 C 227.898438 128.25 227.792969 128.039062 227.683594 127.832031 C 227.570312 127.625 227.460938 127.414062 227.351562 127.203125 C 227.238281 126.992188 227.121094 126.785156 227.007812 126.574219 C 226.949219 126.46875 226.894531 126.363281 226.835938 126.257812 C 226.777344 126.152344 226.71875 126.046875 226.65625 125.941406 C 226.597656 125.835938 226.539062 125.730469 226.480469 125.625 C 226.421875 125.519531 226.363281 125.414062 226.300781 125.308594 C 226.179688 125.097656 226.054688 124.886719 225.933594 124.675781 L 225.839844 124.515625 L 225.746094 124.359375 C 225.683594 124.253906 225.621094 124.148438 225.558594 124.042969 C 225.496094 123.9375 225.433594 123.832031 225.367188 123.726562 C 225.304688 123.621094 225.238281 123.515625 225.175781 123.410156 C 225.046875 123.199219 224.917969 122.988281 224.785156 122.777344 C 224.257812 121.9375 223.710938 121.101562 223.144531 120.269531 C 222.578125 119.441406 221.992188 118.617188 221.394531 117.808594 C 220.789062 117 220.171875 116.199219 219.542969 115.414062 C 218.910156 114.632812 218.265625 113.867188 217.613281 113.117188 C 217.449219 112.929688 217.285156 112.746094 217.121094 112.558594 C 217.039062 112.46875 216.957031 112.375 216.875 112.28125 C 216.792969 112.191406 216.707031 112.101562 216.625 112.007812 C 216.542969 111.917969 216.460938 111.828125 216.375 111.738281 L 216.253906 111.601562 L 216.128906 111.464844 C 215.960938 111.285156 215.792969 111.109375 215.625 110.929688 C 215.542969 110.839844 215.457031 110.753906 215.375 110.664062 C 215.289062 110.578125 215.207031 110.492188 215.125 110.402344 C 215.039062 110.316406 214.957031 110.230469 214.871094 110.140625 C 214.789062 110.054688 214.703125 109.96875 214.617188 109.882812 C 214.449219 109.714844 214.28125 109.542969 214.113281 109.371094 C 213.941406 109.203125 213.773438 109.039062 213.605469 108.871094 C 213.4375 108.703125 213.265625 108.542969 213.097656 108.378906 C 213.011719 108.296875 212.929688 108.214844 212.84375 108.136719 C 212.757812 108.054688 212.675781 107.972656 212.589844 107.894531 C 212.421875 107.734375 212.25 107.578125 212.082031 107.421875 C 212.039062 107.382812 212 107.339844 211.957031 107.300781 C 211.914062 107.261719 211.871094 107.226562 211.828125 107.1875 C 211.746094 107.109375 211.660156 107.03125 211.574219 106.957031 C 211.492188 106.878906 211.40625 106.800781 211.324219 106.726562 C 211.28125 106.6875 211.238281 106.648438 211.195312 106.613281 C 211.15625 106.574219 211.113281 106.535156 211.070312 106.5 C 210.902344 106.351562 210.734375 106.203125 210.566406 106.054688 C 210.523438 106.015625 210.484375 105.980469 210.441406 105.945312 C 210.398438 105.90625 210.355469 105.871094 210.316406 105.835938 C 210.230469 105.761719 210.148438 105.691406 210.066406 105.617188 C 209.980469 105.546875 209.898438 105.476562 209.816406 105.402344 C 209.773438 105.367188 209.730469 105.332031 209.691406 105.296875 C 209.648438 105.261719 209.609375 105.226562 209.566406 105.191406 C 208.238281 104.070312 206.945312 103.054688 205.722656 102.152344 C 204.5 101.253906 203.351562 100.464844 202.316406 99.789062 C 201.285156 99.113281 200.363281 98.554688 199.597656 98.105469 C 199.410156 97.992188 199.226562 97.886719 199.058594 97.789062 " fill-opacity="1" fill-rule="nonzero"/></g></g></g><g clip-path="url(#e95f525cf8)"><g clip-path="url(#c8dba5c1de)"><g clip-path="url(#7b78cf67f7)"><path fill="#ffffff" d="M 190.6875 93.09375 C 191.488281 94.367188 192.023438 95.269531 192.230469 96.042969 C 192.226562 96.042969 192.226562 96.046875 192.222656 96.046875 C 191.828125 95.898438 191.371094 95.683594 190.816406 95.410156 C 191.242188 95.71875 191.597656 95.984375 191.882812 96.226562 C 190.664062 96.808594 188.9375 96.96875 186.1875 97.132812 C 188.890625 97.355469 190.542969 97.554688 191.472656 98.179688 C 191.070312 98.429688 190.585938 98.703125 190 99.023438 C 190.691406 98.742188 191.253906 98.523438 191.722656 98.371094 C 191.726562 98.375 191.726562 98.378906 191.730469 98.382812 C 191.183594 99.167969 190.246094 100.089844 188.863281 101.398438 C 190.351562 100.269531 191.402344 99.511719 192.242188 99.113281 C 192.242188 99.117188 192.246094 99.117188 192.246094 99.121094 C 192.003906 99.5625 191.675781 100.082031 191.261719 100.71875 C 191.679688 100.207031 192.035156 99.777344 192.351562 99.425781 C 192.65625 100.546875 192.417969 102.292969 191.941406 105.089844 C 192.804688 102.25 193.394531 100.5 194.25 99.394531 C 194.410156 99.75 194.578125 100.1875 194.769531 100.714844 C 194.644531 100.066406 194.550781 99.539062 194.507812 99.09375 C 194.511719 99.089844 194.515625 99.082031 194.519531 99.082031 C 195.195312 99.460938 195.917969 100.210938 196.929688 101.332031 C 196.128906 100.058594 195.59375 99.15625 195.386719 98.378906 C 195.386719 98.378906 195.390625 98.378906 195.394531 98.375 C 195.789062 98.523438 196.246094 98.742188 196.800781 99.015625 C 196.371094 98.703125 196.019531 98.4375 195.734375 98.195312 C 196.953125 97.617188 198.679688 97.457031 201.429688 97.292969 C 198.726562 97.066406 197.074219 96.867188 196.144531 96.242188 C 196.546875 95.996094 197.03125 95.722656 197.617188 95.402344 C 196.925781 95.679688 196.363281 95.902344 195.894531 96.050781 C 195.894531 96.046875 195.890625 96.046875 195.886719 96.042969 C 196.433594 95.253906 197.371094 94.332031 198.753906 93.027344 C 197.261719 94.152344 196.214844 94.914062 195.375 95.3125 C 195.371094 95.308594 195.371094 95.308594 195.371094 95.304688 C 195.613281 94.863281 195.941406 94.339844 196.351562 93.703125 C 195.933594 94.21875 195.582031 94.644531 195.265625 94.996094 C 194.960938 93.875 195.199219 92.132812 195.675781 89.335938 C 194.8125 92.171875 194.222656 93.925781 193.367188 95.03125 C 193.203125 94.675781 193.039062 94.238281 192.847656 93.707031 C 192.972656 94.355469 193.066406 94.886719 193.109375 95.332031 C 193.105469 95.335938 193.101562 95.339844 193.097656 95.34375 C 192.421875 94.964844 191.699219 94.210938 190.6875 93.09375 " fill-opacity="1" fill-rule="nonzero"/></g></g></g><g clip-path="url(#2ddf4838e6)"><g clip-path="url(#4f506ab2db)"><g clip-path="url(#901a051a02)"><path fill="#ffffff" d="M 217.898438 94.425781 C 217.855469 94.410156 217.816406 94.390625 217.773438 94.375 C 217.734375 94.359375 217.699219 94.34375 217.664062 94.328125 C 216.972656 94.484375 216.371094 94.65625 215.855469 94.859375 C 215.957031 94.894531 216.085938 94.945312 216.25 95.007812 C 216.300781 95.023438 216.355469 95.046875 216.410156 95.066406 C 216.4375 95.078125 216.46875 95.089844 216.5 95.101562 C 216.527344 95.113281 216.558594 95.125 216.589844 95.136719 C 216.710938 95.183594 216.847656 95.238281 216.992188 95.296875 C 217.0625 95.324219 217.140625 95.351562 217.21875 95.382812 C 217.257812 95.398438 217.296875 95.414062 217.335938 95.429688 C 217.375 95.445312 217.417969 95.464844 217.460938 95.480469 C 217.625 95.550781 217.800781 95.621094 217.988281 95.699219 C 218.734375 96.011719 219.636719 96.394531 220.65625 96.875 C 221.675781 97.351562 222.8125 97.917969 224.03125 98.578125 C 225.25 99.238281 226.550781 99.992188 227.898438 100.839844 C 227.941406 100.867188 227.980469 100.890625 228.023438 100.917969 C 228.066406 100.945312 228.109375 100.972656 228.148438 101 C 228.234375 101.054688 228.320312 101.109375 228.402344 101.164062 C 228.488281 101.214844 228.574219 101.273438 228.660156 101.324219 C 228.703125 101.355469 228.742188 101.382812 228.785156 101.410156 C 228.828125 101.4375 228.871094 101.464844 228.914062 101.492188 C 229.085938 101.605469 229.253906 101.71875 229.425781 101.832031 C 229.46875 101.859375 229.511719 101.890625 229.554688 101.917969 C 229.597656 101.949219 229.640625 101.976562 229.683594 102.003906 C 229.769531 102.0625 229.855469 102.125 229.941406 102.183594 C 230.027344 102.242188 230.117188 102.300781 230.203125 102.359375 C 230.246094 102.386719 230.289062 102.417969 230.332031 102.449219 C 230.375 102.476562 230.417969 102.507812 230.460938 102.539062 C 230.632812 102.660156 230.808594 102.78125 230.980469 102.90625 C 231.070312 102.964844 231.15625 103.027344 231.242188 103.089844 C 231.328125 103.152344 231.417969 103.214844 231.503906 103.277344 C 231.679688 103.40625 231.855469 103.53125 232.027344 103.660156 C 232.203125 103.789062 232.375 103.921875 232.550781 104.050781 C 232.726562 104.183594 232.902344 104.316406 233.074219 104.449219 C 233.164062 104.515625 233.25 104.585938 233.339844 104.652344 C 233.425781 104.71875 233.511719 104.789062 233.601562 104.859375 C 233.6875 104.925781 233.773438 104.996094 233.863281 105.0625 C 233.949219 105.132812 234.039062 105.199219 234.125 105.269531 C 234.296875 105.410156 234.472656 105.550781 234.648438 105.695312 L 234.777344 105.800781 L 234.910156 105.90625 C 234.996094 105.980469 235.082031 106.050781 235.167969 106.125 C 235.253906 106.195312 235.34375 106.269531 235.429688 106.339844 C 235.515625 106.414062 235.601562 106.488281 235.6875 106.5625 C 235.863281 106.707031 236.035156 106.855469 236.207031 107.003906 C 236.898438 107.601562 237.582031 108.21875 238.253906 108.847656 C 238.929688 109.480469 239.59375 110.128906 240.246094 110.785156 C 240.894531 111.449219 241.53125 112.121094 242.15625 112.804688 C 242.777344 113.488281 243.382812 114.183594 243.972656 114.878906 C 244.117188 115.054688 244.261719 115.230469 244.40625 115.40625 C 244.480469 115.496094 244.554688 115.582031 244.625 115.667969 C 244.695312 115.757812 244.765625 115.847656 244.835938 115.933594 C 244.910156 116.023438 244.980469 116.109375 245.050781 116.199219 L 245.261719 116.464844 C 245.398438 116.640625 245.539062 116.816406 245.675781 116.992188 C 245.746094 117.082031 245.8125 117.171875 245.882812 117.257812 C 245.949219 117.347656 246.015625 117.4375 246.082031 117.523438 C 246.152344 117.613281 246.21875 117.703125 246.285156 117.789062 C 246.351562 117.878906 246.417969 117.96875 246.484375 118.054688 C 246.617188 118.234375 246.746094 118.410156 246.878906 118.585938 C 247.003906 118.765625 247.132812 118.941406 247.261719 119.121094 C 247.390625 119.296875 247.511719 119.472656 247.636719 119.648438 C 247.699219 119.738281 247.761719 119.828125 247.820312 119.914062 C 247.882812 120.003906 247.945312 120.089844 248.003906 120.179688 C 248.125 120.355469 248.246094 120.53125 248.363281 120.707031 C 248.394531 120.75 248.425781 120.792969 248.453125 120.839844 C 248.484375 120.882812 248.511719 120.925781 248.539062 120.96875 C 248.597656 121.058594 248.65625 121.144531 248.714844 121.234375 C 248.773438 121.320312 248.828125 121.40625 248.886719 121.492188 C 248.914062 121.539062 248.945312 121.582031 248.972656 121.625 C 249 121.667969 249.03125 121.710938 249.058594 121.753906 C 249.167969 121.929688 249.28125 122.105469 249.390625 122.277344 C 249.417969 122.320312 249.445312 122.363281 249.472656 122.40625 C 249.5 122.449219 249.527344 122.492188 249.554688 122.535156 C 249.609375 122.621094 249.664062 122.707031 249.714844 122.792969 C 249.769531 122.878906 249.824219 122.964844 249.875 123.050781 C 249.902344 123.09375 249.929688 123.136719 249.957031 123.179688 C 249.980469 123.21875 250.007812 123.261719 250.03125 123.304688 C 250.863281 124.671875 251.605469 125.988281 252.25 127.222656 C 252.894531 128.460938 253.449219 129.617188 253.914062 130.648438 C 254.382812 131.683594 254.757812 132.597656 255.0625 133.351562 C 255.136719 133.542969 255.207031 133.722656 255.273438 133.890625 C 255.308594 133.976562 255.339844 134.058594 255.367188 134.136719 C 255.398438 134.214844 255.425781 134.292969 255.453125 134.367188 C 255.511719 134.515625 255.5625 134.652344 255.609375 134.777344 C 255.65625 134.902344 255.699219 135.019531 255.734375 135.121094 C 255.882812 135.53125 255.960938 135.75 255.960938 135.75 C 255.960938 135.75 255.886719 135.527344 255.746094 135.117188 C 255.710938 135.011719 255.675781 134.894531 255.628906 134.769531 C 255.585938 134.644531 255.535156 134.503906 255.480469 134.355469 C 255.457031 134.28125 255.429688 134.203125 255.398438 134.125 C 255.371094 134.042969 255.34375 133.960938 255.308594 133.875 C 255.246094 133.707031 255.179688 133.527344 255.109375 133.335938 C 254.820312 132.570312 254.460938 131.648438 254.015625 130.605469 C 253.566406 129.5625 253.035156 128.394531 252.414062 127.140625 C 251.789062 125.890625 251.074219 124.550781 250.269531 123.164062 C 250.242188 123.121094 250.21875 123.078125 250.191406 123.035156 C 250.167969 122.992188 250.140625 122.949219 250.117188 122.90625 C 250.0625 122.820312 250.011719 122.730469 249.960938 122.644531 C 249.90625 122.558594 249.855469 122.46875 249.804688 122.382812 C 249.777344 122.339844 249.75 122.292969 249.726562 122.25 C 249.699219 122.207031 249.671875 122.164062 249.644531 122.117188 C 249.535156 121.945312 249.429688 121.765625 249.320312 121.589844 C 249.292969 121.542969 249.265625 121.5 249.238281 121.457031 C 249.210938 121.410156 249.183594 121.367188 249.152344 121.324219 C 249.097656 121.234375 249.042969 121.144531 248.984375 121.058594 C 248.929688 120.96875 248.871094 120.878906 248.816406 120.789062 C 248.789062 120.746094 248.757812 120.699219 248.730469 120.65625 C 248.703125 120.613281 248.671875 120.566406 248.644531 120.523438 C 248.527344 120.34375 248.410156 120.164062 248.292969 119.984375 C 248.234375 119.894531 248.175781 119.804688 248.113281 119.714844 C 248.054688 119.625 247.996094 119.535156 247.933594 119.445312 C 247.8125 119.265625 247.691406 119.085938 247.566406 118.90625 C 247.441406 118.726562 247.316406 118.542969 247.191406 118.363281 C 247.0625 118.183594 246.933594 118.003906 246.808594 117.820312 C 246.742188 117.730469 246.679688 117.640625 246.613281 117.550781 C 246.546875 117.457031 246.480469 117.367188 246.414062 117.277344 C 246.347656 117.1875 246.28125 117.097656 246.214844 117.007812 C 246.148438 116.917969 246.085938 116.824219 246.015625 116.734375 C 245.878906 116.554688 245.746094 116.375 245.609375 116.195312 L 245.503906 116.058594 L 245.402344 115.921875 C 245.332031 115.832031 245.261719 115.742188 245.191406 115.652344 C 245.125 115.5625 245.054688 115.472656 244.984375 115.382812 C 244.914062 115.292969 244.839844 115.203125 244.769531 115.113281 C 244.628906 114.933594 244.484375 114.753906 244.339844 114.574219 C 243.761719 113.859375 243.167969 113.148438 242.554688 112.449219 C 241.941406 111.75 241.3125 111.054688 240.667969 110.375 C 240.023438 109.699219 239.367188 109.03125 238.703125 108.378906 C 238.03125 107.730469 237.355469 107.097656 236.671875 106.480469 C 236.5 106.324219 236.328125 106.171875 236.15625 106.019531 C 236.070312 105.945312 235.984375 105.867188 235.898438 105.792969 C 235.8125 105.71875 235.726562 105.644531 235.640625 105.570312 C 235.554688 105.496094 235.46875 105.421875 235.382812 105.34375 L 235.25 105.234375 L 235.121094 105.125 C 234.949219 104.976562 234.773438 104.832031 234.601562 104.6875 C 234.515625 104.613281 234.425781 104.542969 234.339844 104.472656 C 234.253906 104.398438 234.167969 104.328125 234.078125 104.257812 C 233.992188 104.1875 233.90625 104.117188 233.820312 104.046875 C 233.730469 103.976562 233.644531 103.90625 233.558594 103.835938 C 233.382812 103.699219 233.210938 103.558594 233.035156 103.421875 C 232.859375 103.285156 232.6875 103.152344 232.511719 103.015625 C 232.339844 102.882812 232.164062 102.75 231.992188 102.621094 C 231.90625 102.554688 231.816406 102.488281 231.730469 102.421875 C 231.644531 102.359375 231.558594 102.292969 231.472656 102.230469 C 231.296875 102.101562 231.125 101.976562 230.953125 101.847656 C 230.90625 101.816406 230.867188 101.785156 230.824219 101.753906 C 230.777344 101.722656 230.734375 101.691406 230.691406 101.664062 C 230.605469 101.601562 230.519531 101.539062 230.433594 101.476562 C 230.347656 101.417969 230.261719 101.355469 230.175781 101.292969 C 230.132812 101.265625 230.089844 101.234375 230.046875 101.203125 C 230.003906 101.175781 229.960938 101.144531 229.917969 101.113281 C 229.746094 100.996094 229.574219 100.878906 229.40625 100.757812 C 229.363281 100.730469 229.320312 100.699219 229.277344 100.671875 C 229.234375 100.644531 229.191406 100.613281 229.148438 100.585938 C 229.0625 100.527344 228.980469 100.472656 228.894531 100.414062 C 228.808594 100.359375 228.726562 100.300781 228.640625 100.246094 C 228.601562 100.214844 228.558594 100.1875 228.515625 100.160156 C 228.472656 100.132812 228.429688 100.105469 228.390625 100.078125 C 227.042969 99.191406 225.738281 98.402344 224.515625 97.707031 C 223.289062 97.015625 222.144531 96.417969 221.121094 95.910156 C 220.09375 95.402344 219.183594 94.992188 218.433594 94.660156 C 218.242188 94.578125 218.066406 94.5 217.898438 94.425781 " fill-opacity="1" fill-rule="nonzero"/></g></g></g><g clip-path="url(#34b7831e0b)"><g clip-path="url(#87e89ab891)"><g clip-path="url(#f5ff14e4fa)"><path fill="#ffffff" d="M 209.675781 91.035156 C 210.554688 92.117188 211.144531 92.890625 211.421875 93.578125 C 211.421875 93.582031 211.421875 93.582031 211.417969 93.585938 C 211.039062 93.492188 210.59375 93.34375 210.050781 93.152344 C 210.480469 93.390625 210.835938 93.59375 211.125 93.785156 C 210.066406 94.453125 208.496094 94.792969 205.984375 95.25 C 208.496094 95.15625 210.039062 95.15625 210.960938 95.628906 C 210.621094 95.902344 210.203125 96.207031 209.699219 96.566406 C 210.308594 96.234375 210.800781 95.96875 211.214844 95.777344 C 211.214844 95.78125 211.21875 95.785156 211.222656 95.785156 C 210.804688 96.570312 210.046875 97.523438 208.917969 98.878906 C 210.164062 97.675781 211.042969 96.859375 211.773438 96.402344 C 211.777344 96.402344 211.777344 96.40625 211.777344 96.410156 C 211.601562 96.839844 211.359375 97.359375 211.050781 97.988281 C 211.378906 97.46875 211.660156 97.039062 211.910156 96.679688 C 212.316406 97.675781 212.289062 99.308594 212.160156 101.933594 C 212.640625 99.226562 212.988281 97.550781 213.65625 96.4375 C 213.84375 96.746094 214.042969 97.132812 214.277344 97.597656 C 214.089844 97.015625 213.945312 96.539062 213.855469 96.132812 C 213.859375 96.128906 213.863281 96.125 213.863281 96.121094 C 214.53125 96.394531 215.277344 97.007812 216.332031 97.925781 C 215.453125 96.84375 214.863281 96.070312 214.585938 95.378906 C 214.589844 95.378906 214.589844 95.375 214.59375 95.375 C 214.972656 95.46875 215.417969 95.617188 215.957031 95.804688 C 215.53125 95.570312 215.171875 95.363281 214.882812 95.171875 C 215.941406 94.503906 217.511719 94.164062 220.027344 93.707031 C 217.515625 93.800781 215.972656 93.800781 215.046875 93.328125 C 215.390625 93.054688 215.804688 92.75 216.308594 92.390625 C 215.703125 92.726562 215.210938 92.992188 214.796875 93.179688 C 214.792969 93.179688 214.789062 93.175781 214.785156 93.171875 C 215.203125 92.386719 215.964844 91.4375 217.09375 90.082031 C 215.847656 91.28125 214.964844 92.097656 214.234375 92.558594 C 214.234375 92.554688 214.234375 92.554688 214.230469 92.550781 C 214.40625 92.117188 214.652344 91.601562 214.957031 90.96875 C 214.628906 91.488281 214.351562 91.921875 214.101562 92.28125 C 213.695312 91.28125 213.722656 89.652344 213.851562 87.023438 C 213.371094 89.730469 213.023438 91.40625 212.355469 92.519531 C 212.167969 92.210938 211.96875 91.828125 211.734375 91.363281 C 211.921875 91.945312 212.066406 92.421875 212.152344 92.828125 C 212.152344 92.832031 212.148438 92.835938 212.144531 92.839844 C 211.480469 92.5625 210.730469 91.953125 209.675781 91.035156 " fill-opacity="1" fill-rule="nonzero"/></g></g></g><g clip-path="url(#03f11cd88d)"><g clip-path="url(#ead7fbd892)"><g clip-path="url(#b3082e57dd)"><path fill="#ffffff" d="M 202.246094 91.546875 C 203.171875 90.117188 203.300781 90.078125 204.84375 90.796875 C 203.414062 89.875 203.378906 89.742188 204.097656 88.203125 C 203.171875 89.628906 203.042969 89.667969 201.5 88.949219 C 202.929688 89.871094 202.96875 90 202.246094 91.546875 " fill-opacity="1" fill-rule="nonzero"/></g></g></g><g clip-path="url(#5569876eae)"><g clip-path="url(#2b6ea57eb8)"><g clip-path="url(#fbeb042829)"><path fill="#ffffff" d="M 220.761719 105.398438 C 221.6875 103.96875 221.816406 103.933594 223.359375 104.652344 C 221.929688 103.726562 221.890625 103.597656 222.609375 102.054688 C 221.6875 103.484375 221.558594 103.523438 220.015625 102.800781 C 221.445312 103.726562 221.480469 103.855469 220.761719 105.398438 " fill-opacity="1" fill-rule="nonzero"/></g></g></g><g clip-path="url(#9bbaa83c7c)"><g clip-path="url(#1264cc42b8)"><g clip-path="url(#1f8075c0e7)"><path fill="#ffffff" d="M 193.914062 110.550781 C 194.839844 109.121094 194.96875 109.082031 196.511719 109.800781 C 195.082031 108.878906 195.046875 108.75 195.765625 107.207031 C 194.839844 108.636719 194.710938 108.671875 193.167969 107.953125 C 194.597656 108.878906 194.636719 109.007812 193.914062 110.550781 " fill-opacity="1" fill-rule="nonzero"/></g></g></g><g clip-path="url(#2d392659f4)"><g clip-path="url(#d70bbff662)"><g clip-path="url(#2a6736671d)"><path fill="#ffffff" d="M 201.667969 83.007812 C 202.246094 82.117188 202.324219 82.09375 203.289062 82.542969 C 202.398438 81.964844 202.375 81.882812 202.824219 80.921875 C 202.246094 81.8125 202.164062 81.835938 201.203125 81.386719 C 202.09375 81.964844 202.117188 82.042969 201.667969 83.007812 " fill-opacity="1" fill-rule="nonzero"/></g></g></g><g clip-path="url(#76bbeb530f)"><g clip-path="url(#61a6529be4)"><g clip-path="url(#a5e0744f19)"><path fill="#ffffff" d="M 201.007812 106.703125 C 201.585938 105.8125 201.667969 105.789062 202.628906 106.238281 C 201.738281 105.660156 201.714844 105.582031 202.164062 104.617188 C 201.585938 105.507812 201.503906 105.53125 200.542969 105.085938 C 201.433594 105.660156 201.457031 105.742188 201.007812 106.703125 " fill-opacity="1" fill-rule="nonzero"/></g></g></g><g clip-path="url(#47a6dd325a)"><path fill="#ffffff" d="M 270.996094 332.734375 L 259.8125 309.59375 C 257.054688 311.320312 255.113281 314.0625 254.085938 317.300781 L 248.222656 314.28125 C 247.804688 314.0625 247.308594 314.039062 246.871094 314.21875 C 246.4375 314.394531 246.089844 314.757812 245.941406 315.210938 L 243.113281 323.632812 C 242.828125 324.484375 243.289062 325.40625 244.136719 325.691406 C 244.988281 325.976562 245.910156 325.515625 246.195312 324.667969 L 248.417969 318.039062 L 253.371094 320.589844 C 253.171875 322.269531 253.1875 324.023438 253.4375 325.804688 L 249.863281 324.699219 C 249.015625 324.4375 248.109375 324.90625 247.839844 325.753906 L 244.328125 336.605469 C 244.050781 337.457031 244.519531 338.375 245.375 338.652344 C 245.789062 338.785156 246.21875 338.746094 246.582031 338.566406 C 246.96875 338.382812 247.28125 338.042969 247.421875 337.605469 L 250.4375 328.277344 L 254.289062 329.46875 C 254.613281 330.472656 255 331.476562 255.480469 332.464844 C 256.042969 333.632812 256.691406 334.726562 257.410156 335.738281 L 253.222656 336.421875 C 252.4375 336.546875 251.863281 337.226562 251.855469 338.023438 L 251.839844 347.316406 C 251.839844 348.214844 252.5625 348.941406 253.460938 348.945312 C 253.714844 348.945312 253.957031 348.886719 254.171875 348.78125 C 254.714844 348.523438 255.089844 347.964844 255.089844 347.324219 L 255.105469 339.40625 L 259.859375 338.628906 C 262.445312 341.195312 265.527344 342.933594 268.679688 343.644531 C 274.671875 340.097656 271.15625 333.039062 270.996094 332.734375 Z M 270.996094 332.734375 " fill-opacity="1" fill-rule="nonzero"/></g><path fill="#ffffff" d="M 274.90625 337.703125 C 274.886719 339.84375 274.265625 342.089844 272.566406 343.972656 C 274.210938 343.882812 275.824219 343.496094 277.347656 342.761719 C 278.867188 342.027344 280.175781 341 281.269531 339.765625 C 278.738281 339.925781 276.597656 339.023438 274.90625 337.703125 Z M 274.90625 337.703125 " fill-opacity="1" fill-rule="nonzero"/><g clip-path="url(#e1c0391b1d)"><path fill="#ffffff" d="M 245.113281 302.769531 C 247.234375 302.4375 250.710938 302.324219 252.832031 303.085938 C 251.007812 305.695312 250.570312 309.078125 251.992188 312.019531 C 252.21875 312.496094 252.496094 312.941406 252.800781 313.355469 C 254.382812 310.386719 256.75 307.972656 259.816406 306.488281 C 262.878906 305.007812 266.246094 304.652344 269.550781 305.257812 C 269.421875 304.761719 269.242188 304.273438 269.011719 303.792969 C 267.527344 300.71875 264.398438 298.933594 261.058594 298.878906 C 261.871094 296.796875 263.992188 294.308594 265.5 292.917969 C 265.941406 292.511719 265.96875 291.824219 265.566406 291.386719 C 265.15625 290.945312 264.472656 290.917969 264.03125 291.324219 C 263.511719 291.800781 259.558594 295.546875 258.722656 299.128906 C 258.007812 299.292969 257.300781 299.527344 256.609375 299.863281 C 255.765625 300.273438 255.007812 300.789062 254.339844 301.382812 C 251.027344 299.71875 245.484375 300.519531 244.777344 300.632812 C 244.183594 300.722656 243.785156 301.277344 243.875 301.867188 C 243.96875 302.460938 244.519531 302.863281 245.113281 302.769531 Z M 245.113281 302.769531 " fill-opacity="1" fill-rule="nonzero"/></g><g clip-path="url(#deef40a144)"><path fill="#ffffff" d="M 293.363281 312.902344 L 282.679688 308.910156 C 281.839844 308.601562 280.914062 309.015625 280.59375 309.84375 L 279.097656 313.695312 C 277.882812 312.386719 276.546875 311.261719 275.132812 310.359375 L 276.273438 304.574219 L 282.847656 306.949219 C 283.691406 307.253906 284.621094 306.820312 284.925781 305.976562 C 285.234375 305.128906 284.796875 304.199219 283.953125 303.894531 L 275.59375 300.875 C 275.148438 300.710938 274.65625 300.753906 274.242188 300.988281 C 273.828125 301.222656 273.535156 301.625 273.445312 302.089844 L 272.125 308.8125 C 268.867188 307.511719 265.40625 307.296875 262.25 308.414062 L 273.421875 331.523438 C 273.582031 331.871094 276.921875 339.007812 283.421875 336.515625 C 284.8125 333.640625 285.363281 330.195312 284.988281 326.617188 L 288.863281 323.089844 L 295.074219 327.996094 C 295.582031 328.394531 296.25 328.445312 296.792969 328.179688 C 297.007812 328.078125 297.203125 327.925781 297.359375 327.726562 C 297.914062 327.023438 297.796875 326 297.089844 325.445312 L 289.796875 319.683594 C 289.171875 319.191406 288.28125 319.222656 287.695312 319.757812 L 284.261719 322.882812 C 283.910156 321.65625 283.445312 320.429688 282.863281 319.226562 C 282.433594 318.332031 281.941406 317.496094 281.417969 316.695312 L 283.042969 312.519531 L 292.222656 315.949219 C 292.65625 316.109375 293.113281 316.074219 293.5 315.886719 C 293.863281 315.714844 294.160156 315.402344 294.3125 314.996094 C 294.628906 314.152344 294.203125 313.214844 293.363281 312.902344 Z M 293.363281 312.902344 " fill-opacity="1" fill-rule="nonzero"/></g><g fill="#ffffff" fill-opacity="1"><g transform="translate(80.094323, 277.102717)"><g><path d="M 14.601562 -16.996094 C 13.582031 -17.703125 11.226562 -18.332031 10.757812 -19.550781 C 10.050781 -21.472656 12.679688 -22.847656 14.015625 -23.472656 C 17.429688 -25.082031 14.445312 -30.148438 11.03125 -28.539062 C 5.769531 -26.066406 2.121094 -19.078125 7.378906 -14.523438 C 9.226562 -12.914062 12.875 -12.285156 13.269531 -9.382812 C 13.425781 -8.164062 12.835938 -7.027344 11.738281 -6.554688 C 10.992188 -6.242188 8.242188 -5.808594 7.617188 -6.671875 C 5.339844 -9.65625 0.234375 -6.710938 2.511719 -3.691406 C 7.144531 2.433594 18.214844 -0.15625 19.078125 -8.007812 C 19.46875 -11.621094 17.585938 -15.035156 14.601562 -16.996094 Z M 14.601562 -16.996094 "/></g></g></g><g fill="#ffffff" fill-opacity="1"><g transform="translate(101.208717, 277.102717)"><g><path d="M 29.285156 -14.015625 C 29.246094 -17.429688 28.8125 -21.589844 26.066406 -23.984375 C 23.042969 -26.652344 20.097656 -25.242188 17.820312 -22.53125 C 17.742188 -22.6875 17.625 -22.847656 17.546875 -22.964844 C 15.425781 -26.222656 10.953125 -26.027344 8.359375 -23.472656 C 5.574219 -20.765625 4.160156 -16.25 3.335938 -12.5625 C 2.472656 -8.519531 2.199219 -4.355469 1.960938 -0.273438 C 1.726562 3.53125 7.617188 3.492188 7.851562 -0.273438 C 8.125 -5.222656 8.441406 -10.246094 10.128906 -14.917969 C 10.519531 -15.976562 10.953125 -16.996094 11.539062 -17.941406 C 11.738281 -18.253906 12.246094 -19.3125 12.71875 -19.429688 C 12.71875 -19.46875 12.757812 -19.46875 12.757812 -19.46875 C 12.757812 -19.429688 12.757812 -19.351562 12.835938 -19.273438 C 13.308594 -18.644531 13.152344 -16.800781 13.191406 -16.054688 C 13.230469 -14.640625 13.152344 -13.230469 12.992188 -11.777344 C 12.679688 -8.519531 18.253906 -7.734375 18.804688 -11.03125 C 19.117188 -13.109375 19.785156 -15.074219 20.921875 -16.878906 C 21.316406 -17.46875 22.179688 -18.175781 22.6875 -18.804688 C 22.769531 -18.175781 23.082031 -17.546875 23.160156 -16.957031 C 24.101562 -11.738281 23.082031 -5.964844 22.570312 -0.785156 C 22.179688 2.984375 28.066406 2.984375 28.460938 -0.785156 C 28.890625 -5.140625 29.363281 -9.578125 29.285156 -14.015625 Z M 29.285156 -14.015625 "/></g></g></g><g fill="#ffffff" fill-opacity="1"><g transform="translate(132.487843, 277.102717)"><g><path d="M 21.824219 -23.945312 C 18.605469 -29.246094 10.207031 -29.914062 6.007812 -25.632812 C 1.882812 -22.101562 1.296875 -13.894531 2.472656 -9.304688 C 3.296875 -6.164062 5.378906 -2.867188 8.597656 -1.84375 C 11.933594 -0.746094 15.625 -1.960938 18.253906 -4.121094 C 20.921875 -6.359375 22.570312 -9.617188 23.121094 -13.03125 C 23.632812 -16.410156 23.671875 -20.921875 21.824219 -23.945312 Z M 14.679688 -8.675781 C 14.5625 -8.597656 14.484375 -8.519531 14.367188 -8.402344 C 13.109375 -7.339844 11.109375 -6.910156 9.773438 -7.929688 C 8.910156 -8.558594 8.519531 -9.617188 8.242188 -10.636719 C 7.851562 -12.324219 7.773438 -14.09375 7.96875 -15.820312 C 8.164062 -17.390625 8.558594 -19.390625 9.460938 -20.6875 C 10.285156 -21.824219 11.660156 -22.53125 13.070312 -22.570312 C 15.503906 -22.609375 17.074219 -20.960938 17.351562 -18.683594 C 17.820312 -15.230469 17.3125 -11.1875 14.679688 -8.675781 Z M 14.679688 -8.675781 "/></g></g></g><g fill="#ffffff" fill-opacity="1"><g transform="translate(157.880062, 277.102717)"><g><path d="M 17.273438 -12.679688 C 14.210938 -12.445312 11.1875 -12.011719 8.203125 -11.34375 C 8.714844 -16.210938 9.1875 -21.039062 9.65625 -25.867188 C 10.011719 -29.636719 4.121094 -29.597656 3.769531 -25.867188 C 3.179688 -19.746094 2.550781 -13.621094 1.960938 -7.496094 C 1.765625 -5.574219 4.003906 -4.160156 5.691406 -4.671875 C 9.5 -5.769531 13.347656 -6.476562 17.273438 -6.792969 C 21.039062 -7.066406 21.078125 -12.953125 17.273438 -12.679688 Z M 17.273438 -12.679688 "/></g></g></g><g fill="#ffffff" fill-opacity="1"><g transform="translate(179.975603, 277.102717)"><g><path d="M 24.101562 -21.472656 C 22.6875 -28.066406 13.109375 -30.5 7.617188 -28.460938 C 7.496094 -28.421875 7.417969 -28.382812 7.339844 -28.34375 C 6.007812 -28.460938 4.316406 -27.636719 4.121094 -26.222656 C 3.375 -20.53125 2.121094 -14.640625 1.960938 -8.910156 C 1.804688 -3.652344 6.203125 -1.019531 11.070312 -1.570312 C 15.664062 -2.121094 20.492188 -5.769531 20.414062 -10.757812 C 20.375 -12.089844 20.019531 -13.230469 19.429688 -14.132812 C 22.53125 -15.625 24.847656 -17.980469 24.101562 -21.472656 Z M 14.09375 -23.042969 C 14.71875 -22.847656 18.371094 -21.589844 18.253906 -20.492188 C 18.214844 -19.902344 15.664062 -19 14.996094 -18.765625 C 13.386719 -18.175781 11.777344 -17.941406 10.089844 -17.898438 C 9.890625 -17.898438 9.65625 -17.898438 9.460938 -17.898438 C 9.265625 -17.898438 9.105469 -17.898438 8.910156 -17.859375 C 9.144531 -19.550781 9.382812 -21.238281 9.578125 -22.925781 C 11.109375 -23.433594 12.523438 -23.472656 14.09375 -23.042969 Z M 13.699219 -9.027344 C 12.757812 -7.96875 9.34375 -6.359375 8.046875 -7.695312 C 7.535156 -8.203125 7.890625 -9.539062 7.96875 -10.246094 C 8.007812 -10.953125 8.125 -11.621094 8.203125 -12.285156 C 8.558594 -12.128906 8.988281 -12.050781 9.460938 -12.011719 C 9.65625 -12.011719 9.851562 -12.011719 10.050781 -12.011719 C 12.167969 -12.011719 16.09375 -11.660156 13.699219 -9.027344 Z M 13.699219 -9.027344 "/></g></g></g><g fill="#ffffff" fill-opacity="1"><g transform="translate(206.19199, 277.102717)"><g><path d="M 15.820312 -26.8125 C 15.546875 -24.535156 15.269531 -22.21875 14.957031 -19.941406 C 14.015625 -18.058594 11.109375 -14.996094 8.910156 -16.449219 C 6.710938 -17.941406 8.007812 -22.769531 8.792969 -24.574219 C 10.324219 -28.066406 4.984375 -30.539062 3.453125 -27.085938 C 1.335938 -22.140625 0.746094 -14.015625 6.4375 -11.109375 C 8.558594 -10.050781 10.835938 -10.050781 12.992188 -10.796875 C 12.285156 -9.105469 11.1875 -7.578125 9.421875 -6.792969 C 6.007812 -5.261719 8.046875 0.273438 11.539062 -1.296875 C 20.609375 -5.378906 20.53125 -17.351562 21.628906 -25.789062 C 22.101562 -29.558594 16.332031 -30.578125 15.820312 -26.8125 Z M 15.820312 -26.8125 "/></g></g></g><g fill="#ffffff" fill-opacity="1"><g transform="translate(229.818133, 277.102717)"><g><path d="M 17.859375 -26.96875 C 13.503906 -27.519531 9.144531 -27.597656 4.75 -27.125 C 1.019531 -26.773438 0.980469 -20.882812 4.75 -21.277344 C 5.925781 -21.394531 7.066406 -21.433594 8.203125 -21.511719 C 7.851562 -15.742188 7.535156 -10.011719 7.183594 -4.277344 C 6.949219 -0.472656 12.835938 -0.511719 13.070312 -4.277344 C 13.425781 -9.972656 13.738281 -15.703125 14.09375 -21.433594 C 15.347656 -21.355469 16.605469 -21.238281 17.859375 -21.078125 C 21.628906 -20.570312 21.589844 -26.457031 17.859375 -26.96875 Z M 17.859375 -26.96875 "/></g></g></g><g fill="#ffffff" fill-opacity="1"><g transform="translate(252.463117, 277.102717)"><g><path d="M 16.371094 -8.28125 C 13.660156 -8.359375 10.953125 -8.28125 8.28125 -8.007812 C 8.480469 -9.5 8.714844 -10.992188 8.910156 -12.523438 C 10.246094 -12.523438 11.582031 -12.445312 12.914062 -12.324219 C 14.523438 -12.167969 15.859375 -13.777344 15.859375 -15.269531 C 15.859375 -16.996094 14.523438 -18.058594 12.914062 -18.214844 C 11.894531 -18.292969 10.875 -18.371094 9.8125 -18.371094 C 10.050781 -19.902344 10.324219 -21.433594 10.558594 -22.925781 C 12.5625 -22.925781 14.523438 -22.886719 16.527344 -22.730469 C 20.292969 -22.492188 20.292969 -28.382812 16.527344 -28.617188 C 13.699219 -28.8125 10.835938 -28.851562 8.007812 -28.773438 C 6.910156 -28.734375 6.125 -28.183594 5.652344 -27.476562 C 5.457031 -27.164062 5.300781 -26.773438 5.222656 -26.300781 C 3.925781 -19.117188 2.867188 -11.894531 1.960938 -4.632812 C 1.6875 -2.550781 4.042969 -1.53125 5.691406 -1.804688 C 9.226562 -2.355469 12.796875 -2.511719 16.371094 -2.394531 C 20.136719 -2.238281 20.136719 -8.125 16.371094 -8.28125 Z M 16.371094 -8.28125 "/></g></g></g><g fill="#ffffff" fill-opacity="1"><g transform="translate(273.773754, 277.102717)"><g><path d="M 14.601562 -16.957031 C 13.582031 -17.625 11.226562 -18.253906 10.757812 -19.507812 C 10.050781 -21.433594 12.679688 -22.808594 14.015625 -23.394531 C 17.429688 -25.003906 14.445312 -30.109375 11.03125 -28.5 C 5.769531 -26.027344 2.121094 -19 7.378906 -14.484375 C 9.226562 -12.835938 12.875 -12.207031 13.269531 -9.34375 C 13.425781 -8.085938 12.835938 -6.988281 11.738281 -6.515625 C 10.992188 -6.164062 8.242188 -5.730469 7.617188 -6.59375 C 5.339844 -9.578125 0.234375 -6.671875 2.511719 -3.652344 C 7.144531 2.472656 18.214844 -0.078125 19.078125 -7.96875 C 19.46875 -11.539062 17.585938 -14.957031 14.601562 -16.957031 Z M 14.601562 -16.957031 "/></g></g></g><g fill="#ffffff" fill-opacity="1"><g transform="translate(157.738538, 306.491728)"><g><path d="M 7.878906 0.0234375 C 8.53125 -0.285156 8.460938 -0.769531 8.257812 -1.148438 C 7.039062 -3.449219 6.554688 -4.539062 5.816406 -6.566406 C 5.460938 -7.535156 5.273438 -7.964844 5.179688 -8.117188 C 4.929688 -8.613281 3.945312 -8.496094 3.746094 -7.976562 C 2.261719 -4.101562 1.707031 -3.023438 0.828125 -1.5625 C 0.546875 -1.101562 0.296875 -0.628906 0.652344 -0.140625 C 1.136719 0.519531 1.980469 -0.496094 2.324219 -1.304688 C 4.195312 -1.480469 4.8125 -1.304688 6.386719 -1.328125 L 6.824219 -0.507812 C 7.015625 -0.140625 7.324219 0.285156 7.878906 0.0234375 Z M 2.914062 -2.59375 C 3.886719 -5.035156 4.039062 -5.5 4.324219 -6.398438 C 5.058594 -4.621094 5.5 -3.53125 5.84375 -2.640625 C 4.5625 -2.640625 4.207031 -2.691406 2.914062 -2.59375 Z M 2.914062 -2.59375 "/></g></g></g><g fill="#ffffff" fill-opacity="1"><g transform="translate(171.554271, 306.491728)"><g/></g></g><g fill="#ffffff" fill-opacity="1"><g transform="translate(180.998213, 306.491728)"><g><path d="M 2.65625 0.105469 C 4.207031 0.214844 5.34375 0.164062 6.101562 -0.0351562 C 7.347656 -0.34375 7.796875 -0.902344 7.796875 -1.636719 C 7.796875 -2.476562 6.730469 -3.414062 6.019531 -3.734375 C 7.027344 -4.300781 7.535156 -5 7.535156 -5.816406 C 7.535156 -6.660156 7.242188 -7.335938 6.671875 -7.832031 C 5.273438 -9.066406 2.324219 -8.460938 1.304688 -7.488281 C 0.757812 -6.96875 0.570312 -6.492188 0.496094 -6.148438 C 0.378906 -5.605469 0.757812 -5.238281 1.042969 -5.261719 C 1.089844 -2.324219 1.171875 -0.535156 1.28125 -0.332031 C 1.410156 -0.164062 1.636719 -0.0234375 1.957031 0.0351562 C 1.980469 0.0351562 2.003906 0.0351562 2.027344 0.046875 C 2.085938 0.046875 2.144531 0.0585938 2.214844 0.0585938 C 2.335938 0.0703125 2.476562 0.09375 2.65625 0.105469 Z M 2.191406 -4.242188 C 2.167969 -4.75 2.167969 -5.832031 2.214844 -6.566406 C 2.960938 -7.214844 3.671875 -7.3125 4.421875 -7.265625 C 5.320312 -7.191406 6.445312 -6.707031 6.445312 -5.867188 C 6.445312 -5.535156 6.269531 -5.214844 5.902344 -4.871094 C 5.355469 -4.371094 4.136719 -4.148438 2.191406 -4.242188 Z M 2.335938 -2.914062 C 3.390625 -3 4.703125 -3 5.5 -2.59375 C 5.949219 -2.359375 6.386719 -2.003906 6.386719 -1.683594 C 6.386719 -0.972656 2.464844 -1.042969 2.464844 -1.160156 C 2.40625 -1.574219 2.324219 -2.523438 2.335938 -2.914062 Z M 2.335938 -2.914062 "/></g></g></g><g fill="#ffffff" fill-opacity="1"><g transform="translate(194.209709, 306.491728)"><g><path d="M 3.746094 0 C 5.203125 0.117188 7.394531 -0.863281 7.914062 -2.679688 C 8.296875 -3.957031 8.246094 -5.308594 8.046875 -6.566406 C 7.941406 -7.242188 7.855469 -8.367188 7.050781 -8.367188 C 6.589844 -8.367188 5.925781 -7.796875 6.1875 -7.203125 C 6.671875 -6.101562 6.933594 -4.503906 6.578125 -3.304688 C 6.234375 -2.121094 4.882812 -1.03125 3.945312 -1.125 C 2.179688 -1.292969 1.625 -4.003906 2.085938 -6.683594 L 2.191406 -7.371094 C 2.191406 -8.308594 1.386719 -8.128906 1.21875 -8.046875 C 1.101562 -7.988281 0.996094 -7.761719 0.890625 -7.40625 C 0.355469 -5.570312 0.332031 -3.910156 0.863281 -2.464844 C 1.410156 -0.960938 2.371094 -0.128906 3.746094 0 Z M 3.746094 0 "/></g></g></g><g fill="#ffffff" fill-opacity="1"><g transform="translate(207.824026, 306.491728)"><g><path d="M 6.566406 -0.09375 C 6.980469 -0.152344 7.382812 -0.25 7.808594 -0.332031 L 7.925781 -0.378906 C 8.140625 -0.425781 8.367188 -0.507812 8.4375 -0.628906 C 8.484375 -0.722656 8.625 -1.328125 8.769531 -1.96875 C 8.886719 -2.605469 9.160156 -3.945312 8.625 -3.980469 C 8.320312 -4.113281 6.589844 -4.195312 5.355469 -4.125 C 4.65625 -3.980469 4.835938 -3.222656 4.988281 -3.09375 C 5.238281 -3.046875 5.355469 -3.046875 5.949219 -3.058594 C 6.554688 -3.023438 7.074219 -2.960938 7.5 -2.890625 L 7.453125 -2.273438 C 7.429688 -2.015625 7.429688 -1.777344 7.417969 -1.574219 C 7.289062 -1.550781 7.144531 -1.503906 6.96875 -1.457031 C 6.304688 -1.28125 5.890625 -1.246094 5.425781 -1.207031 C 4.300781 -1.160156 3.425781 -1.457031 2.679688 -2.179688 C 2.511719 -2.359375 2.371094 -2.558594 2.214844 -2.785156 C 1.601562 -3.722656 1.789062 -5.167969 2.773438 -6.148438 C 4.113281 -7.476562 6.210938 -7.324219 7.0625 -6.847656 C 7.144531 -5.902344 7.203125 -5.34375 7.335938 -5.285156 C 7.621094 -5.121094 8.34375 -5.226562 8.402344 -5.652344 C 8.460938 -6.113281 8.269531 -6.375 8.355469 -6.910156 C 8.460938 -7.609375 8.449219 -7.808594 7.808594 -8.09375 C 6.859375 -8.507812 4.8125 -8.734375 3.390625 -8.1875 C 3.140625 -8.117188 2.890625 -8.023438 2.679688 -7.902344 C 1.625 -7.371094 0.960938 -6.53125 0.652344 -5.402344 C 0.605469 -5.214844 0.570312 -5.023438 0.535156 -4.8125 C 0.332031 -3.589844 0.617188 -2.429688 1.28125 -1.550781 C 1.707031 -0.960938 2.300781 -0.496094 3.023438 -0.238281 C 4.265625 0.238281 5.367188 0.214844 6.566406 -0.09375 Z M 6.566406 -0.09375 "/></g></g></g><g fill="#ffffff" fill-opacity="1"><g transform="translate(139.176039, 322.991727)"><g><path d="M 4.324219 0.261719 C 4.597656 0.226562 4.738281 -0.0820312 4.726562 -0.285156 C 4.726562 -1.574219 4.738281 -3.199219 4.726562 -4.480469 C 4.691406 -6.066406 4.65625 -6.554688 4.632812 -7.050781 L 6.777344 -7.027344 C 7.382812 -6.921875 7.535156 -7.300781 7.535156 -7.570312 C 7.535156 -7.914062 7.277344 -8.175781 6.800781 -8.257812 L 5.523438 -8.425781 C 4.148438 -8.578125 2.773438 -8.554688 1.421875 -8.367188 C 0.828125 -8.257812 0.546875 -7.925781 0.484375 -7.609375 C 0.4375 -7.394531 0.496094 -7.191406 0.628906 -7.0625 C 0.890625 -6.777344 1.550781 -6.835938 1.90625 -6.898438 C 2.359375 -6.980469 2.832031 -7.015625 3.316406 -7.039062 L 3.339844 -6.1875 C 3.355469 -5.664062 3.304688 -5.308594 3.28125 -3.746094 C 3.269531 -2.429688 3.257812 -1.042969 3.269531 -0.273438 C 3.28125 0.34375 3.648438 0.355469 4.324219 0.261719 Z M 4.324219 0.261719 "/></g></g></g><g fill="#ffffff" fill-opacity="1"><g transform="translate(152.126896, 322.991727)"><g><path d="M 2.0625 0.0820312 C 2.285156 0.0234375 2.40625 -0.0820312 2.40625 -0.25 C 2.40625 -0.496094 2.40625 -0.734375 2.335938 -1.207031 C 2.25 -1.730469 2.25 -2.050781 2.238281 -2.167969 L 2.75 -2.167969 C 4.503906 -2.167969 4.21875 -2.121094 5.746094 -0.605469 C 6.46875 0.117188 7.027344 0.261719 7.214844 0.296875 C 7.464844 0.34375 8.128906 0 7.453125 -0.640625 C 7.324219 -0.769531 6.53125 -1.351562 5.84375 -2.429688 L 6.007812 -2.476562 C 7.5 -2.925781 8.246094 -3.757812 8.246094 -4.988281 C 8.246094 -5.792969 7.925781 -6.542969 7.277344 -7.226562 C 5.804688 -8.828125 3.757812 -8.804688 1.742188 -7.667969 C 0.675781 -7.0625 0.179688 -6.421875 0.664062 -5.675781 C 0.710938 -2.109375 0.78125 -0.273438 0.863281 -0.128906 C 1.089844 0.191406 1.765625 0.203125 2.0625 0.0820312 Z M 2.027344 -6.445312 C 2.855469 -7.097656 3.671875 -7.347656 4.480469 -7.179688 C 5.460938 -6.980469 6.859375 -6.28125 6.859375 -5.179688 C 6.859375 -3.292969 4.113281 -3.070312 2.039062 -3.4375 C 1.980469 -4.359375 1.980469 -5.546875 2.027344 -6.445312 Z M 2.027344 -6.445312 "/></g></g></g><g fill="#ffffff" fill-opacity="1"><g transform="translate(165.788615, 322.991727)"><g><path d="M 7.878906 0.0234375 C 8.53125 -0.285156 8.460938 -0.769531 8.257812 -1.148438 C 7.039062 -3.449219 6.554688 -4.539062 5.816406 -6.566406 C 5.460938 -7.535156 5.273438 -7.964844 5.179688 -8.117188 C 4.929688 -8.613281 3.945312 -8.496094 3.746094 -7.976562 C 2.261719 -4.101562 1.707031 -3.023438 0.828125 -1.5625 C 0.546875 -1.101562 0.296875 -0.628906 0.652344 -0.140625 C 1.136719 0.519531 1.980469 -0.496094 2.324219 -1.304688 C 4.195312 -1.480469 4.8125 -1.304688 6.386719 -1.328125 L 6.824219 -0.507812 C 7.015625 -0.140625 7.324219 0.285156 7.878906 0.0234375 Z M 2.914062 -2.59375 C 3.886719 -5.035156 4.039062 -5.5 4.324219 -6.398438 C 5.058594 -4.621094 5.5 -3.53125 5.84375 -2.640625 C 4.5625 -2.640625 4.207031 -2.691406 2.914062 -2.59375 Z M 2.914062 -2.59375 "/></g></g></g><g fill="#ffffff" fill-opacity="1"><g transform="translate(179.604348, 322.991727)"><g><path d="M 3.210938 -0.117188 C 4.835938 0.367188 6.175781 0.0703125 7.773438 -0.617188 C 8.234375 -0.816406 8.484375 -1.101562 8.308594 -1.492188 C 8.09375 -1.96875 7.714844 -1.847656 7.085938 -1.625 C 6.433594 -1.398438 6.019531 -1.328125 5.558594 -1.269531 C 4.230469 -1.113281 3.210938 -1.480469 2.324219 -2.464844 C 1.515625 -3.355469 1.492188 -5.09375 2.65625 -6.007812 C 4.492188 -7.453125 5.558594 -7.027344 7.144531 -6.222656 C 7.667969 -5.960938 8.675781 -6.765625 7.914062 -7.382812 C 6.160156 -8.863281 4.347656 -8.886719 2.464844 -7.761719 C 1.136719 -6.96875 0.472656 -5.722656 0.472656 -4.015625 C 0.472656 -2.167969 1.527344 -0.617188 3.210938 -0.117188 Z M 3.210938 -0.117188 "/></g></g></g><g fill="#ffffff" fill-opacity="1"><g transform="translate(193.384536, 322.991727)"><g><path d="M 1.089844 0.128906 C 1.410156 0.164062 1.945312 0.164062 1.945312 -0.472656 C 1.945312 -1.292969 1.980469 -1.457031 1.992188 -2.820312 L 2.371094 -2.476562 C 2.714844 -2.167969 3.164062 -1.894531 3.449219 -1.671875 C 4.800781 -0.570312 5.402344 -0.285156 5.699219 -0.105469 C 6.210938 0.203125 6.898438 -0.0820312 6.886719 -0.617188 C 6.886719 -0.699219 6.730469 -0.890625 6.46875 -1.125 C 6.363281 -1.207031 5.617188 -1.894531 4.421875 -2.75 C 3.734375 -3.234375 3.152344 -3.710938 2.703125 -4.148438 C 4.347656 -5.628906 4.679688 -5.984375 6.445312 -7.371094 C 6.765625 -7.609375 6.542969 -8.296875 5.949219 -8.128906 C 5.414062 -7.988281 4.667969 -7.570312 3.921875 -7.050781 C 3.414062 -6.683594 2.570312 -5.9375 1.980469 -5.378906 C 1.957031 -6.292969 1.945312 -7.242188 1.929688 -8.023438 C 1.929688 -8.222656 1.789062 -8.332031 1.515625 -8.367188 C 0.828125 -8.449219 0.472656 -8.1875 0.472656 -7.570312 C 0.472656 -6.800781 0.496094 -5.746094 0.535156 -4.433594 C 0.59375 -2.867188 0.640625 -2.511719 0.640625 -1.992188 L 0.640625 -1.113281 C 0.640625 -1.054688 0.628906 -0.984375 0.628906 -0.628906 C 0.628906 -0.164062 0.78125 0.0820312 1.089844 0.128906 Z M 1.089844 0.128906 "/></g></g></g><g fill="#ffffff" fill-opacity="1"><g transform="translate(205.683764, 322.991727)"><g><path d="M 1.089844 0.128906 C 1.410156 0.164062 1.945312 0.164062 1.945312 -0.472656 C 1.945312 -1.445312 1.992188 -0.710938 1.992188 -2.9375 C 1.992188 -4.21875 1.945312 -5.191406 1.929688 -6.480469 C 1.929688 -6.683594 1.789062 -6.789062 1.515625 -6.824219 C 0.828125 -6.910156 0.472656 -6.648438 0.472656 -6.03125 C 0.472656 -2.925781 0.628906 -4.113281 0.628906 -0.628906 C 0.628906 -0.164062 0.78125 0.0820312 1.089844 0.128906 Z M 0.558594 -7.902344 C 0.546875 -7.65625 0.640625 -7.265625 0.925781 -7.191406 C 1.113281 -7.144531 1.269531 -7.15625 1.398438 -7.167969 C 1.660156 -7.191406 1.800781 -7.300781 1.882812 -7.382812 C 2.027344 -7.511719 1.992188 -7.703125 1.957031 -7.925781 C 1.917969 -8.152344 1.824219 -8.320312 1.683594 -8.425781 C 1.527344 -8.542969 1.328125 -8.578125 1.136719 -8.542969 C 0.984375 -8.519531 0.839844 -8.449219 0.734375 -8.332031 C 0.628906 -8.222656 0.558594 -8.082031 0.558594 -7.902344 Z M 0.558594 -7.902344 "/></g></g></g><g fill="#ffffff" fill-opacity="1"><g transform="translate(213.089899, 322.991727)"><g><path d="M 1.730469 0 C 2.085938 -0.191406 2.097656 -0.628906 2.074219 -0.816406 C 1.90625 -2.75 1.824219 -5.296875 1.859375 -5.949219 L 6.421875 -0.25 C 6.578125 -0.09375 6.625 -0.0234375 6.886719 0 C 7.761719 0.0703125 7.679688 -0.414062 7.644531 -1.019531 C 7.511719 -3.292969 7.417969 -5.285156 7.84375 -7.441406 C 7.925781 -7.953125 7.902344 -8.449219 7.382812 -8.472656 C 6.730469 -8.507812 6.601562 -8.320312 6.554688 -7.914062 C 6.433594 -7.15625 6.363281 -5.996094 6.363281 -5.34375 L 6.351562 -2.546875 L 1.90625 -8.234375 C 1.753906 -8.4375 0.472656 -9.078125 0.472656 -6.898438 C 0.472656 -6.53125 0.546875 -5.367188 0.570312 -3.472656 C 0.59375 -1.410156 0.640625 -0.261719 0.675781 -0.179688 C 0.769531 0.164062 1.410156 0.152344 1.730469 0 Z M 1.730469 0 "/></g></g></g><g fill="#ffffff" fill-opacity="1"><g transform="translate(226.384328, 322.991727)"><g><path d="M 6.566406 -0.09375 C 6.980469 -0.152344 7.382812 -0.25 7.808594 -0.332031 L 7.925781 -0.378906 C 8.140625 -0.425781 8.367188 -0.507812 8.4375 -0.628906 C 8.484375 -0.722656 8.625 -1.328125 8.769531 -1.96875 C 8.886719 -2.605469 9.160156 -3.945312 8.625 -3.980469 C 8.320312 -4.113281 6.589844 -4.195312 5.355469 -4.125 C 4.65625 -3.980469 4.835938 -3.222656 4.988281 -3.09375 C 5.238281 -3.046875 5.355469 -3.046875 5.949219 -3.058594 C 6.554688 -3.023438 7.074219 -2.960938 7.5 -2.890625 L 7.453125 -2.273438 C 7.429688 -2.015625 7.429688 -1.777344 7.417969 -1.574219 C 7.289062 -1.550781 7.144531 -1.503906 6.96875 -1.457031 C 6.304688 -1.28125 5.890625 -1.246094 5.425781 -1.207031 C 4.300781 -1.160156 3.425781 -1.457031 2.679688 -2.179688 C 2.511719 -2.359375 2.371094 -2.558594 2.214844 -2.785156 C 1.601562 -3.722656 1.789062 -5.167969 2.773438 -6.148438 C 4.113281 -7.476562 6.210938 -7.324219 7.0625 -6.847656 C 7.144531 -5.902344 7.203125 -5.34375 7.335938 -5.285156 C 7.621094 -5.121094 8.34375 -5.226562 8.402344 -5.652344 C 8.460938 -6.113281 8.269531 -6.375 8.355469 -6.910156 C 8.460938 -7.609375 8.449219 -7.808594 7.808594 -8.09375 C 6.859375 -8.507812 4.8125 -8.734375 3.390625 -8.1875 C 3.140625 -8.117188 2.890625 -8.023438 2.679688 -7.902344 C 1.625 -7.371094 0.960938 -6.53125 0.652344 -5.402344 C 0.605469 -5.214844 0.570312 -5.023438 0.535156 -4.8125 C 0.332031 -3.589844 0.617188 -2.429688 1.28125 -1.550781 C 1.707031 -0.960938 2.300781 -0.496094 3.023438 -0.238281 C 4.265625 0.238281 5.367188 0.214844 6.566406 -0.09375 Z M 6.566406 -0.09375 "/></g></g></g><g fill="#ffffff" fill-opacity="1"><g transform="translate(140.19557, 339.491726)"><g><path d="M 3.210938 -0.117188 C 4.835938 0.367188 6.175781 0.0703125 7.773438 -0.617188 C 8.234375 -0.816406 8.484375 -1.101562 8.308594 -1.492188 C 8.09375 -1.96875 7.714844 -1.847656 7.085938 -1.625 C 6.433594 -1.398438 6.019531 -1.328125 5.558594 -1.269531 C 4.230469 -1.113281 3.210938 -1.480469 2.324219 -2.464844 C 1.515625 -3.355469 1.492188 -5.09375 2.65625 -6.007812 C 4.492188 -7.453125 5.558594 -7.027344 7.144531 -6.222656 C 7.667969 -5.960938 8.675781 -6.765625 7.914062 -7.382812 C 6.160156 -8.863281 4.347656 -8.886719 2.464844 -7.761719 C 1.136719 -6.96875 0.472656 -5.722656 0.472656 -4.015625 C 0.472656 -2.167969 1.527344 -0.617188 3.210938 -0.117188 Z M 3.210938 -0.117188 "/></g></g></g><g fill="#ffffff" fill-opacity="1"><g transform="translate(153.975758, 339.491726)"><g><path d="M 4.5625 0.179688 C 7.214844 0.296875 9.609375 -1.71875 9.609375 -4.347656 C 9.609375 -6.613281 7.785156 -8.566406 5.5 -8.566406 C 3.304688 -8.566406 0.472656 -6.671875 0.472656 -4.039062 C 0.472656 -1.742188 2.285156 0.0585938 4.5625 0.179688 Z M 2.273438 -4.277344 C 2.273438 -5.949219 3.484375 -7.300781 5.058594 -7.300781 C 7.003906 -7.300781 7.796875 -5.757812 8.023438 -4.039062 C 8.28125 -2.226562 6.742188 -1.160156 5.121094 -0.949219 C 3.496094 -0.746094 2.273438 -2.59375 2.273438 -4.277344 Z M 2.273438 -4.277344 "/></g></g></g><g fill="#ffffff" fill-opacity="1"><g transform="translate(168.999953, 339.491726)"><g><path d="M 10.617188 0.179688 C 11.472656 0.164062 11.554688 0.203125 11.328125 -0.734375 L 10.84375 -2.300781 L 8.863281 -8.09375 C 8.792969 -8.28125 7.820312 -8.996094 6.824219 -6.859375 C 6.695312 -6.566406 6.363281 -5.757812 5.804688 -4.492188 L 5.722656 -4.644531 L 3.921875 -8.34375 C 3.816406 -8.554688 2.738281 -9.253906 2.132812 -7.109375 C 2.015625 -6.742188 1.777344 -5.59375 1.257812 -3.722656 C 0.710938 -1.695312 0.472656 -0.960938 0.472656 -0.535156 C 0.472656 -0.191406 0.984375 0.046875 1.351562 -0.09375 C 1.753906 -0.25 1.894531 -0.914062 1.945312 -1.101562 C 2.261719 -2.761719 2.9375 -5.191406 3.257812 -6.222656 C 3.304688 -6.351562 3.460938 -6.363281 3.519531 -6.222656 L 5.046875 -2.617188 C 5.15625 -2.441406 5.179688 -2.382812 5.4375 -2.347656 C 5.984375 -2.261719 6.386719 -2.429688 6.660156 -3.082031 C 7.179688 -4.457031 7.714844 -5.285156 8.046875 -5.867188 C 8.105469 -5.972656 8.246094 -5.960938 8.28125 -5.84375 L 10.15625 -0.191406 C 10.226562 0.046875 10.355469 0.179688 10.617188 0.179688 Z M 10.617188 0.179688 "/></g></g></g><g fill="#ffffff" fill-opacity="1"><g transform="translate(185.84869, 339.491726)"><g><path d="M 2.039062 0.0820312 C 2.261719 0.0234375 2.382812 -0.0820312 2.382812 -0.25 C 2.382812 -0.496094 2.382812 -0.734375 2.3125 -1.207031 C 2.226562 -1.730469 2.226562 -2.050781 2.214844 -2.167969 C 3.746094 -2.074219 4.929688 -2.15625 5.984375 -2.476562 C 7.476562 -2.925781 8.222656 -3.757812 8.222656 -4.988281 C 8.222656 -5.792969 7.902344 -6.542969 7.253906 -7.226562 C 5.78125 -8.828125 3.722656 -8.828125 1.71875 -7.667969 C 0.675781 -7.0625 0.179688 -6.421875 0.664062 -5.675781 C 0.710938 -2.109375 0.78125 -0.273438 0.863281 -0.128906 C 1.089844 0.191406 1.742188 0.203125 2.039062 0.0820312 Z M 2.003906 -6.445312 C 2.832031 -7.097656 3.648438 -7.347656 4.457031 -7.179688 C 5.4375 -6.980469 6.835938 -6.28125 6.835938 -5.179688 C 6.835938 -3.292969 4.089844 -3.070312 2.015625 -3.4375 C 1.957031 -4.359375 1.957031 -5.546875 2.003906 -6.445312 Z M 2.003906 -6.445312 "/></g></g></g><g fill="#ffffff" fill-opacity="1"><g transform="translate(199.486708, 339.491726)"><g><path d="M 7.878906 0.0234375 C 8.53125 -0.285156 8.460938 -0.769531 8.257812 -1.148438 C 7.039062 -3.449219 6.554688 -4.539062 5.816406 -6.566406 C 5.460938 -7.535156 5.273438 -7.964844 5.179688 -8.117188 C 4.929688 -8.613281 3.945312 -8.496094 3.746094 -7.976562 C 2.261719 -4.101562 1.707031 -3.023438 0.828125 -1.5625 C 0.546875 -1.101562 0.296875 -0.628906 0.652344 -0.140625 C 1.136719 0.519531 1.980469 -0.496094 2.324219 -1.304688 C 4.195312 -1.480469 4.8125 -1.304688 6.386719 -1.328125 L 6.824219 -0.507812 C 7.015625 -0.140625 7.324219 0.285156 7.878906 0.0234375 Z M 2.914062 -2.59375 C 3.886719 -5.035156 4.039062 -5.5 4.324219 -6.398438 C 5.058594 -4.621094 5.5 -3.53125 5.84375 -2.640625 C 4.5625 -2.640625 4.207031 -2.691406 2.914062 -2.59375 Z M 2.914062 -2.59375 "/></g></g></g><g fill="#ffffff" fill-opacity="1"><g transform="translate(213.302439, 339.491726)"><g><path d="M 1.730469 0 C 2.085938 -0.191406 2.097656 -0.628906 2.074219 -0.816406 C 1.90625 -2.75 1.824219 -5.296875 1.859375 -5.949219 L 6.421875 -0.25 C 6.578125 -0.09375 6.625 -0.0234375 6.886719 0 C 7.761719 0.0703125 7.679688 -0.414062 7.644531 -1.019531 C 7.511719 -3.292969 7.417969 -5.285156 7.84375 -7.441406 C 7.925781 -7.953125 7.902344 -8.449219 7.382812 -8.472656 C 6.730469 -8.507812 6.601562 -8.320312 6.554688 -7.914062 C 6.433594 -7.15625 6.363281 -5.996094 6.363281 -5.34375 L 6.351562 -2.546875 L 1.90625 -8.234375 C 1.753906 -8.4375 0.472656 -9.078125 0.472656 -6.898438 C 0.472656 -6.53125 0.546875 -5.367188 0.570312 -3.472656 C 0.59375 -1.410156 0.640625 -0.261719 0.675781 -0.179688 C 0.769531 0.164062 1.410156 0.152344 1.730469 0 Z M 1.730469 0 "/></g></g></g><g fill="#ffffff" fill-opacity="1"><g transform="translate(226.596867, 339.491726)"><g><path d="M 1.945312 0 C 2.191406 0.203125 2.640625 0.484375 2.984375 -0.0585938 C 4.050781 -1.777344 3.636719 -1.089844 4.738281 -2.785156 C 5.414062 -3.875 7.65625 -7.726562 7.644531 -7.703125 C 7.988281 -8.402344 6.636719 -8.613281 6.480469 -8.425781 C 6.28125 -8.1875 4.941406 -6.007812 4.789062 -5.6875 C 4.539062 -5.226562 4.207031 -4.738281 3.886719 -4.171875 L 3.828125 -4.066406 C 3.472656 -4.667969 2.523438 -6.445312 2.0625 -7.75 C 2.003906 -7.878906 1.8125 -8.367188 1.375 -8.460938 C 0.984375 -8.554688 0.460938 -8.355469 0.472656 -8.09375 C 0.507812 -7.796875 0.792969 -7.253906 1.480469 -5.769531 C 2.015625 -4.667969 2.75 -3.339844 3.082031 -2.75 C 2.9375 -2.488281 2.761719 -2.179688 2.679688 -2.039062 C 2.167969 -1.230469 2.132812 -1.195312 1.945312 -0.890625 C 1.707031 -0.496094 1.695312 -0.203125 1.945312 0 Z M 1.945312 0 "/></g></g></g></svg>